<svg width="493" height="377" viewBox="0 0 493 377" fill="none" xmlns="http://www.w3.org/2000/svg">
<path d="M155.696 254.893L226.095 214.752C228.669 213.265 228.347 210.669 225.373 208.953L184.868 185.567C181.896 183.851 177.399 183.664 174.824 185.151L104.425 225.293C101.851 226.779 102.173 229.375 105.147 231.091L145.652 254.477C148.625 256.195 153.121 256.38 155.696 254.893Z" fill="#D9EFFB"/>
<path d="M98.148 211.78V47.4293L163.484 30.3293L175.52 23.3814C178.281 21.7867 183.105 21.9867 186.296 23.828L197.523 30.3107L232.372 30.292L222.052 188.948C222.132 190.027 221.529 191.068 220.201 191.835L155 241.032C152.239 242.627 147.413 242.427 144.225 240.585L100.772 215.499C98.932 214.436 98.0453 213.06 98.148 211.78Z" fill="#4067B1"/>
<path d="M180.52 22.3134C182.54 22.3614 184.639 22.872 186.296 23.828L197.523 30.3107L232.372 30.292V195.083C232.451 196.161 231.849 197.203 230.521 197.971L155 241.032C153.673 241.799 151.868 242.145 150 242.1L149.221 76.28L180.52 22.3134" fill="#D9EFFB"/>
<path d="M154.307 241.372C151.924 242.392 148.479 242.336 145.695 241.273V74.32H154.307V241.372Z" fill="#5F92D3"/>
<path d="M155 76.3L230.521 33.236C233.284 31.6414 232.937 28.8574 229.748 27.0147L186.296 1.92668C183.105 0.0853512 178.281 -0.113295 175.52 1.48137L99.9986 44.5427C97.236 46.1387 97.5826 48.9227 100.772 50.764L144.225 75.852C147.415 77.6947 152.239 77.8934 155 76.3Z" fill="#D9EFFB"/>
<path d="M100.772 47.7094L144.225 72.7974C147.415 74.6387 152.239 74.8374 155 73.244L230.521 30.1814C231.137 29.8254 231.589 29.408 231.9 28.9587C232.849 30.484 232.417 32.14 230.521 33.236L155 76.2987C152.239 77.8934 147.415 77.6947 144.225 75.852L100.772 50.764C98.2947 49.3334 97.5413 47.3347 98.62 45.7654C99.0533 46.4627 99.7733 47.132 100.772 47.7094Z" fill="#FCFEFF"/>
<path d="M152.864 58.8467L203.144 29.7C204.436 28.9547 204.275 27.6507 202.783 26.7893L182.448 15.0494C180.956 14.188 178.697 14.0933 177.407 14.84L127.127 43.9853C125.833 44.7333 125.996 46.036 127.488 46.8973L147.821 58.6373C149.313 59.4987 151.572 59.592 152.864 58.8467" fill="#263C7A"/>
<path d="M180.009 31.0093L182.921 29.3267C183.101 29.224 183.079 29.044 182.872 28.924L180.059 27.3C179.853 27.1813 179.54 27.168 179.361 27.2707L176.448 28.9533C176.269 29.0573 176.292 29.2373 176.497 29.3573L179.311 30.9813C179.519 31.1 179.829 31.1133 180.009 31.0093" fill="#D9EFFB"/>
<path d="M170.275 36.6067L173.189 34.924C173.367 34.82 173.345 34.64 173.139 34.5213L170.325 32.8973C170.119 32.7773 169.805 32.764 169.628 32.8694L166.713 34.5507C166.535 34.6533 166.557 34.8333 166.764 34.9533L169.577 36.576C169.784 36.6974 170.096 36.7094 170.275 36.6067" fill="#D9EFFB"/>
<path d="M160.541 42.2027L163.455 40.5214C163.635 40.4187 163.611 40.2374 163.405 40.1187L160.591 38.4934C160.385 38.3747 160.073 38.3614 159.895 38.464L156.98 40.1481C156.803 40.2494 156.824 40.4307 157.029 40.5494L159.844 42.1747C160.051 42.2934 160.361 42.3054 160.541 42.2027" fill="#D9EFFB"/>
<path d="M150.807 47.8L153.721 46.1186C153.9 46.0146 153.877 45.8347 153.671 45.7147L150.859 44.0906C150.651 43.972 150.339 43.9587 150.16 44.0627L147.247 45.744C147.068 45.848 147.089 46.028 147.297 46.1467L150.109 47.7707C150.316 47.8907 150.629 47.904 150.807 47.8" fill="#D9EFFB"/>
<path d="M203.144 29.7L203.084 29.7347L202.783 29.5267L182.448 17.7867C180.956 16.9253 178.697 16.832 177.407 17.5787L127.185 46.6907C125.995 45.8373 125.932 44.676 127.127 43.9853L177.407 14.84C178.697 14.0934 180.956 14.188 182.448 15.0494L202.783 26.7893C204.275 27.6507 204.436 28.9547 203.144 29.7" fill="#5F92D3"/>
<path d="M135.741 108.861L107.153 92.492C105.544 91.564 104.24 89.072 104.24 86.9266V76.7027C104.24 74.5587 105.544 73.5733 107.153 74.5013L135.741 90.8693C137.349 91.7987 138.653 94.2907 138.653 96.4347V106.659C138.653 108.804 137.349 109.789 135.741 108.861Z" fill="#263C7A"/>
<path d="M105.739 74.1933C105.288 74.6173 105.007 75.34 105.007 76.32V86.5427C105.007 88.6893 106.311 91.18 107.92 92.1093L136.507 108.476C137.024 108.775 137.501 108.857 137.923 108.785C137.389 109.289 136.613 109.364 135.741 108.861L107.153 92.492C105.544 91.564 104.24 89.072 104.24 86.9266V76.7027C104.24 75.248 104.848 74.3453 105.739 74.1933" fill="white"/>
<path d="M127.143 97.7547L124.52 96.2414C124.169 96.0374 123.885 95.4947 123.885 95.028V92.2267C123.885 91.7587 124.169 91.544 124.52 91.7467L127.143 93.26C127.493 93.464 127.777 94.0067 127.777 94.4734V97.2747C127.777 97.7427 127.493 97.9573 127.143 97.7547Z" fill="#4067B1"/>
<path d="M118.373 92.6933L115.751 91.1787C115.4 90.9747 115.116 90.432 115.116 89.9653V87.164C115.116 86.696 115.4 86.4813 115.751 86.684L118.373 88.1973C118.724 88.4 119.008 88.944 119.008 89.412V92.212C119.008 92.68 118.724 92.8947 118.373 92.6933Z" fill="white"/>
<path d="M135.741 182.736L107.153 166.367C105.544 165.439 104.24 162.947 104.24 160.803V150.579C104.24 148.433 105.544 147.448 107.153 148.376L135.741 164.745C137.349 165.673 138.653 168.165 138.653 170.309V180.532C138.653 182.679 137.349 183.664 135.741 182.736" fill="#263C7A"/>
<path d="M105.739 148.068C105.288 148.492 105.007 149.215 105.007 150.195V160.417C105.007 162.564 106.311 165.055 107.92 165.984L136.507 182.352C137.024 182.649 137.501 182.732 137.923 182.66C137.389 183.164 136.613 183.24 135.741 182.736L107.153 166.367C105.544 165.439 104.24 162.947 104.24 160.803V150.579C104.24 149.123 104.848 148.22 105.739 148.068Z" fill="white"/>
<path d="M127.143 171.631L124.52 170.116C124.169 169.913 123.885 169.369 123.885 168.903V166.101C123.885 165.635 124.169 165.419 124.52 165.621L127.143 167.136C127.493 167.337 127.777 167.881 127.777 168.349V171.149C127.777 171.617 127.493 171.832 127.143 171.631" fill="#4067B1"/>
<path d="M118.373 166.567L115.751 165.053C115.4 164.851 115.116 164.307 115.116 163.84V161.039C115.116 160.572 115.4 160.357 115.751 160.559L118.373 162.073C118.724 162.275 119.008 162.819 119.008 163.287V166.087C119.008 166.555 118.724 166.769 118.373 166.567Z" fill="white"/>
<path d="M135.741 219.673L107.153 203.305C105.544 202.376 104.24 199.884 104.24 197.74V187.516C104.24 185.371 105.544 184.385 107.153 185.313L135.741 201.683C137.349 202.611 138.653 205.103 138.653 207.248V217.471C138.653 219.616 137.349 220.601 135.741 219.673Z" fill="#263C7A"/>
<path d="M105.739 185.005C105.288 185.429 105.007 186.152 105.007 187.133V197.356C105.007 199.501 106.311 201.992 107.92 202.921L136.507 219.289C137.024 219.587 137.501 219.669 137.923 219.597C137.389 220.101 136.613 220.177 135.741 219.673L107.153 203.305C105.544 202.376 104.24 199.884 104.24 197.74V187.516C104.24 186.06 104.848 185.157 105.739 185.005Z" fill="white"/>
<path d="M127.143 208.568L124.52 207.053C124.169 206.851 123.885 206.307 123.885 205.84V203.039C123.885 202.572 124.169 202.357 124.52 202.559L127.143 204.073C127.493 204.275 127.777 204.819 127.777 205.287V208.087C127.777 208.555 127.493 208.769 127.143 208.568Z" fill="#4067B1"/>
<path d="M118.373 203.504L115.751 201.991C115.4 201.788 115.116 201.245 115.116 200.777V197.976C115.116 197.509 115.4 197.295 115.751 197.496L118.373 199.011C118.724 199.212 119.008 199.755 119.008 200.224V203.025C119.008 203.492 118.724 203.707 118.373 203.504Z" fill="white"/>
<path d="M135.741 145.799L107.153 129.429C105.544 128.501 104.24 126.009 104.24 123.864V113.64C104.24 111.496 105.544 110.511 107.153 111.439L135.741 127.807C137.349 128.736 138.653 131.228 138.653 133.372V143.595C138.653 145.741 137.349 146.727 135.741 145.799" fill="#263C7A"/>
<path d="M105.739 111.131C105.288 111.555 105.007 112.277 105.007 113.257V123.48C105.007 125.627 106.311 128.117 107.92 129.047L136.507 145.415C137.024 145.712 137.501 145.795 137.923 145.723C137.389 146.227 136.613 146.303 135.741 145.799L107.153 129.429C105.544 128.501 104.24 126.009 104.24 123.864V113.64C104.24 112.185 104.848 111.283 105.739 111.131" fill="white"/>
<path d="M127.143 134.693L124.52 133.179C124.169 132.975 123.885 132.432 123.885 131.965V129.164C123.885 128.696 124.169 128.481 124.52 128.684L127.143 130.197C127.493 130.4 127.777 130.944 127.777 131.412V134.212C127.777 134.68 127.493 134.895 127.143 134.693Z" fill="#4067B1"/>
<path d="M118.373 129.629L115.751 128.116C115.4 127.913 115.116 127.369 115.116 126.903V124.101C115.116 123.635 115.4 123.419 115.751 123.621L118.373 125.136C118.724 125.337 119.008 125.881 119.008 126.349V129.149C119.008 129.617 118.724 129.832 118.373 129.629Z" fill="white"/>
<path d="M160.501 98.3946L226.456 60.316C227.932 59.464 229.129 57.1773 229.129 55.2093V42.6333C229.129 40.664 227.932 39.76 226.456 40.612L160.501 78.692C159.025 79.5426 157.828 81.8293 157.828 83.7986V96.3747C157.828 98.3427 159.025 99.248 160.501 98.3946Z" fill="#5F92D3"/>
<path d="M161.856 94.148C161.376 94.148 161.039 93.704 161.039 92.96V83.5054C161.039 82.5067 161.645 81.3467 162.395 80.9147L224.563 45.0227C224.753 44.912 224.936 44.86 225.101 44.86C225.583 44.86 225.919 45.304 225.919 46.0467V55.5014C225.919 56.5 225.311 57.66 224.563 58.092L162.395 93.9853C162.203 94.096 162.021 94.148 161.856 94.148Z" fill="#90B9E6"/>
<path d="M211.607 60.7933L220.884 55.436C221.612 55.0173 222.201 53.8907 222.201 52.92C222.201 51.9507 221.612 51.5053 220.884 51.924L211.607 57.2814C210.88 57.7014 210.291 58.828 210.291 59.7987C210.291 60.7667 210.88 61.2133 211.607 60.7933" fill="#D9EFFB"/>
<path d="M203.7 63.6013C203.7 64.572 204.381 64.9654 205.221 64.48C206.061 63.9947 206.743 62.816 206.743 61.8467C206.743 60.876 206.061 60.4827 205.221 60.9694C204.381 61.4534 203.7 62.6333 203.7 63.6013Z" fill="#263C7A"/>
<path d="M198.336 66.6987C198.336 67.6693 199.017 68.0614 199.857 67.5774C200.696 67.092 201.377 65.9134 201.377 64.9427C201.377 63.9734 200.696 63.5813 199.857 64.0653C199.017 64.5507 198.336 65.7293 198.336 66.6987Z" fill="#263C7A"/>
<path d="M192.972 69.7973C192.972 70.7653 193.652 71.1587 194.492 70.6747C195.332 70.1893 196.013 69.0107 196.013 68.04C196.013 67.0707 195.332 66.6773 194.492 67.1627C193.652 67.6467 192.972 68.8267 192.972 69.7973Z" fill="#D9EFFB"/>
<path d="M187.607 72.8933C187.607 73.8627 188.288 74.256 189.128 73.7707C189.968 73.2867 190.648 72.1067 190.648 71.1387C190.648 70.168 189.968 69.7747 189.128 70.2587C188.288 70.7453 187.607 71.9227 187.607 72.8933" fill="#263C7A"/>
<path d="M165.009 88.72L168.135 86.9173C168.601 86.6466 168.979 85.9227 168.979 85.3013V81.9947C168.979 81.372 168.601 81.0853 168.135 81.356L165.009 83.16C164.543 83.4293 164.164 84.152 164.164 84.7747V88.0827C164.164 88.7027 164.543 88.9893 165.009 88.72" fill="#263C7A"/>
<path d="M160.501 120.573L226.456 82.4934C227.932 81.64 229.129 79.3547 229.129 77.3867V64.8094C229.129 62.8414 227.932 61.9373 226.456 62.7893L160.501 100.868C159.025 101.72 157.828 104.007 157.828 105.975V118.552C157.828 120.52 159.025 121.424 160.501 120.573Z" fill="#5F92D3"/>
<path d="M161.856 116.325C161.376 116.325 161.039 115.881 161.039 115.139V105.683C161.039 104.684 161.645 103.524 162.395 103.091L224.563 67.1987C224.753 67.0893 224.936 67.036 225.101 67.036C225.583 67.036 225.919 67.48 225.919 68.224V77.6787C225.919 78.6773 225.311 79.8373 224.563 80.2693L162.395 116.163C162.203 116.273 162.021 116.325 161.856 116.325" fill="#90B9E6"/>
<path d="M211.607 82.9707L220.884 77.6134C221.612 77.1947 222.201 76.068 222.201 75.0974C222.201 74.128 221.612 73.6827 220.884 74.1014L211.607 79.4587C210.88 79.8787 210.291 81.0054 210.291 81.9747C210.291 82.944 210.88 83.3907 211.607 82.9707Z" fill="#D9EFFB"/>
<path d="M203.7 85.7787C203.7 86.7494 204.381 87.1414 205.221 86.6574C206.061 86.172 206.743 84.9934 206.743 84.024C206.743 83.0534 206.061 82.6601 205.221 83.1454C204.381 83.6307 203.7 84.8094 203.7 85.7787Z" fill="white"/>
<path d="M198.336 88.876C198.336 89.8467 199.017 90.24 199.857 89.7533C200.696 89.2693 201.377 88.0893 201.377 87.1213C201.377 86.1507 200.696 85.7574 199.857 86.2427C199.017 86.728 198.336 87.9067 198.336 88.876Z" fill="#263C7A"/>
<path d="M192.972 91.9734C192.972 92.9427 193.652 93.336 194.492 92.852C195.332 92.3667 196.013 91.188 196.013 90.2173C196.013 89.248 195.332 88.856 194.492 89.34C193.652 89.824 192.972 91.004 192.972 91.9734Z" fill="#D9EFFB"/>
<path d="M187.607 95.0707C187.607 96.04 188.288 96.4334 189.128 95.9494C189.968 95.464 190.648 94.2854 190.648 93.3147C190.648 92.3454 189.968 91.952 189.128 92.4373C188.288 92.9213 187.607 94.1013 187.607 95.0707Z" fill="#263C7A"/>
<path d="M165.009 110.897L168.135 109.093C168.601 108.824 168.979 108.101 168.979 107.479V104.172C168.979 103.549 168.601 103.264 168.135 103.533L165.009 105.337C164.543 105.607 164.164 106.329 164.164 106.952V110.259C164.164 110.881 164.543 111.167 165.009 110.897Z" fill="#263C7A"/>
<path d="M160.501 142.749L226.456 104.671C227.932 103.819 229.129 101.532 229.129 99.564V86.9866C229.129 85.02 227.932 84.1147 226.456 84.9667L160.501 123.045C159.025 123.899 157.828 126.185 157.828 128.152V140.729C157.828 142.697 159.025 143.601 160.501 142.749Z" fill="#5F92D3"/>
<path d="M161.856 138.503C161.376 138.503 161.039 138.059 161.039 137.315V127.861C161.039 126.861 161.645 125.701 162.395 125.269L224.563 89.376C224.753 89.2653 224.936 89.2133 225.101 89.2133C225.583 89.2133 225.919 89.6573 225.919 90.4013V99.8573C225.919 100.856 225.311 102.016 224.563 102.448L162.395 138.34C162.203 138.451 162.021 138.503 161.856 138.503Z" fill="#90B9E6"/>
<path d="M211.607 105.147L220.884 99.792C221.612 99.3707 222.201 98.2454 222.201 97.2747C222.201 96.3054 221.612 95.86 220.884 96.28L211.607 101.636C210.88 102.056 210.291 103.183 210.291 104.152C210.291 105.123 210.88 105.568 211.607 105.147Z" fill="#D9EFFB"/>
<path d="M203.7 107.957C203.7 108.925 204.381 109.319 205.221 108.835C206.061 108.349 206.743 107.171 206.743 106.2C206.743 105.231 206.061 104.839 205.221 105.323C204.381 105.807 203.7 106.987 203.7 107.957Z" fill="white"/>
<path d="M198.336 111.053C198.336 112.024 199.017 112.417 199.857 111.931C200.696 111.447 201.377 110.267 201.377 109.299C201.377 108.328 200.696 107.935 199.857 108.42C199.017 108.905 198.336 110.084 198.336 111.053Z" fill="#263C7A"/>
<path d="M192.972 114.151C192.972 115.121 193.652 115.513 194.492 115.028C195.332 114.544 196.013 113.364 196.013 112.395C196.013 111.425 195.332 111.032 194.492 111.517C193.652 112.001 192.972 113.181 192.972 114.151Z" fill="#D9EFFB"/>
<path d="M187.607 117.248C187.607 118.217 188.288 118.611 189.128 118.127C189.968 117.64 190.648 116.463 190.648 115.492C190.648 114.523 189.968 114.129 189.128 114.615C188.288 115.099 187.607 116.279 187.607 117.248Z" fill="#263C7A"/>
<path d="M165.009 133.076L168.135 131.271C168.601 131.001 168.979 130.279 168.979 129.656V126.349C168.979 125.727 168.601 125.441 168.135 125.711L165.009 127.515C164.543 127.784 164.164 128.508 164.164 129.131V132.436C164.164 133.059 164.543 133.344 165.009 133.076Z" fill="#263C7A"/>
<path d="M160.501 164.927L226.456 126.848C227.932 125.996 229.129 123.709 229.129 121.741V109.164C229.129 107.196 227.932 106.292 226.456 107.144L160.501 145.223C159.025 146.076 157.828 148.361 157.828 150.329V162.907C157.828 164.875 159.025 165.779 160.501 164.927Z" fill="#5F92D3"/>
<path d="M161.856 160.68C161.376 160.68 161.039 160.236 161.039 159.492V150.037C161.039 149.039 161.645 147.879 162.395 147.447L224.563 111.553C224.753 111.443 224.936 111.391 225.1 111.391C225.581 111.391 225.919 111.836 225.919 112.58V122.033C225.919 123.032 225.311 124.193 224.563 124.625L162.395 160.517C162.203 160.628 162.021 160.68 161.856 160.68" fill="#90B9E6"/>
<path d="M211.607 127.325L220.884 121.969C221.612 121.548 222.201 120.421 222.201 119.452C222.201 118.483 221.612 118.036 220.884 118.457L211.607 123.813C210.88 124.233 210.291 125.36 210.291 126.329C210.291 127.3 210.88 127.745 211.607 127.325" fill="#D9EFFB"/>
<path d="M203.7 130.135C203.7 131.104 204.381 131.496 205.221 131.012C206.061 130.528 206.743 129.348 206.743 128.377C206.743 127.409 206.061 127.016 205.221 127.5C204.381 127.984 203.7 129.164 203.7 130.135Z" fill="#263C7A"/>
<path d="M198.336 133.231C198.336 134.2 199.017 134.593 199.857 134.109C200.696 133.624 201.377 132.445 201.377 131.475C201.377 130.505 200.696 130.112 199.857 130.597C199.017 131.083 198.336 132.261 198.336 133.231Z" fill="#263C7A"/>
<path d="M192.972 136.328C192.972 137.299 193.652 137.692 194.492 137.205C195.332 136.721 196.013 135.541 196.013 134.572C196.013 133.603 195.332 133.209 194.492 133.695C193.652 134.18 192.972 135.359 192.972 136.328Z" fill="#D9EFFB"/>
<path d="M187.607 139.425C187.607 140.395 188.288 140.788 189.128 140.304C189.968 139.817 190.648 138.639 190.648 137.669C190.648 136.699 189.968 136.307 189.128 136.792C188.288 137.276 187.607 138.456 187.607 139.425Z" fill="#263C7A"/>
<path d="M165.009 155.252L168.135 153.448C168.601 153.179 168.979 152.456 168.979 151.833V148.528C168.979 147.905 168.601 147.619 168.135 147.888L165.009 149.693C164.543 149.961 164.164 150.685 164.164 151.307V154.613C164.164 155.236 164.543 155.523 165.009 155.252" fill="#D9EFFB"/>
<path d="M160.501 187.104L226.456 149.027C227.932 148.173 229.129 145.887 229.129 143.917V131.343C229.129 129.373 227.932 128.469 226.456 129.321L160.501 167.4C159.025 168.252 157.828 170.539 157.828 172.508V185.084C157.828 187.052 159.025 187.957 160.501 187.104Z" fill="#5F92D3"/>
<path d="M161.856 182.857C161.375 182.857 161.039 182.412 161.039 181.669V172.215C161.039 171.216 161.645 170.056 162.395 169.624L224.563 133.731C224.753 133.62 224.936 133.568 225.1 133.568C225.581 133.568 225.919 134.013 225.919 134.756V144.211C225.919 145.209 225.311 146.369 224.563 146.803L162.395 182.693C162.203 182.805 162.021 182.857 161.856 182.857Z" fill="#90B9E6"/>
<path d="M211.607 149.503L220.884 144.145C221.612 143.725 222.201 142.599 222.201 141.631C222.201 140.66 221.612 140.213 220.884 140.635L211.607 145.991C210.88 146.411 210.291 147.536 210.291 148.507C210.291 149.476 210.88 149.921 211.607 149.503Z" fill="#D9EFFB"/>
<path d="M203.7 152.311C203.7 153.281 204.381 153.675 205.221 153.189C206.061 152.704 206.743 151.525 206.743 150.555C206.743 149.585 206.061 149.193 205.221 149.677C204.381 150.163 203.7 151.341 203.7 152.311Z" fill="#263C7A"/>
<path d="M198.336 155.409C198.336 156.377 199.017 156.771 199.857 156.287C200.696 155.801 201.377 154.623 201.377 153.652C201.377 152.683 200.696 152.289 199.857 152.775C199.017 153.259 198.336 154.439 198.336 155.409Z" fill="white"/>
<path d="M192.972 158.505C192.972 159.475 193.652 159.868 194.492 159.383C195.332 158.899 196.013 157.719 196.013 156.751C196.013 155.78 195.332 155.387 194.492 155.871C193.652 156.357 192.972 157.535 192.972 158.505" fill="#D9EFFB"/>
<path d="M187.607 161.603C187.607 162.573 188.288 162.965 189.128 162.48C189.968 161.996 190.648 160.816 190.648 159.847C190.648 158.877 189.968 158.484 189.128 158.969C188.288 159.453 187.607 160.633 187.607 161.603Z" fill="white"/>
<path d="M165.009 177.429L168.135 175.625C168.601 175.356 168.979 174.633 168.979 174.011V170.704C168.979 170.083 168.601 169.796 168.135 170.065L165.009 171.869C164.543 172.139 164.164 172.861 164.164 173.484V176.791C164.164 177.413 164.543 177.699 165.009 177.429Z" fill="#D9EFFB"/>
<path d="M160.501 209.281L226.456 171.203C227.932 170.351 229.129 168.064 229.129 166.095V153.52C229.129 151.551 227.932 150.645 226.456 151.499L160.501 189.577C159.025 190.429 157.828 192.716 157.828 194.685V207.26C157.828 209.229 159.025 210.135 160.501 209.281" fill="#5F92D3"/>
<path d="M161.857 205.035C161.376 205.035 161.039 204.591 161.039 203.847V194.392C161.039 193.393 161.645 192.233 162.395 191.801L224.563 155.909C224.753 155.797 224.936 155.745 225.101 155.745C225.583 155.745 225.919 156.191 225.919 156.933V166.388C225.919 167.387 225.311 168.547 224.563 168.979L162.395 204.872C162.204 204.983 162.021 205.035 161.857 205.035" fill="#90B9E6"/>
<path d="M211.607 171.68L220.884 166.323C221.612 165.904 222.201 164.776 222.201 163.807C222.201 162.837 221.612 162.392 220.884 162.811L211.607 168.168C210.88 168.587 210.291 169.715 210.291 170.684C210.291 171.653 210.88 172.099 211.607 171.68" fill="#D9EFFB"/>
<path d="M203.7 174.488C203.7 175.459 204.381 175.852 205.221 175.365C206.061 174.881 206.743 173.701 206.743 172.733C206.743 171.763 206.061 171.369 205.221 171.855C204.381 172.34 203.7 173.519 203.7 174.488Z" fill="#263C7A"/>
<path d="M198.336 177.585C198.336 178.555 199.017 178.948 199.857 178.464C200.696 177.979 201.377 176.8 201.377 175.829C201.377 174.86 200.696 174.468 199.857 174.952C199.017 175.436 198.336 176.616 198.336 177.585Z" fill="#263C7A"/>
<path d="M192.972 180.683C192.972 181.652 193.652 182.045 194.492 181.561C195.332 181.076 196.013 179.897 196.013 178.927C196.013 177.957 195.332 177.564 194.492 178.049C193.652 178.533 192.972 179.713 192.972 180.683Z" fill="#D9EFFB"/>
<path d="M187.607 183.78C187.607 184.751 188.288 185.143 189.128 184.657C189.968 184.173 190.648 182.993 190.648 182.024C190.648 181.055 189.968 180.661 189.128 181.145C188.288 181.632 187.607 182.809 187.607 183.78Z" fill="#263C7A"/>
<path d="M165.009 199.607L168.135 197.803C168.601 197.532 168.979 196.809 168.979 196.188V192.881C168.979 192.259 168.601 191.972 168.135 192.243L165.009 194.047C164.543 194.316 164.164 195.039 164.164 195.661V198.968C164.164 199.589 164.543 199.876 165.009 199.607Z" fill="#263C7A"/>
<path d="M160.501 231.459L226.456 193.38C227.932 192.527 229.129 190.241 229.129 188.273V175.696C229.129 173.728 227.932 172.823 226.456 173.676L160.501 211.755C159.025 212.607 157.828 214.893 157.828 216.863V229.439C157.828 231.407 159.025 232.311 160.501 231.459Z" fill="#5F92D3"/>
<path d="M161.857 227.212C161.376 227.212 161.039 226.767 161.039 226.024V216.569C161.039 215.571 161.645 214.411 162.395 213.977L224.563 178.085C224.753 177.976 224.936 177.923 225.101 177.923C225.583 177.923 225.919 178.367 225.919 179.111V188.565C225.919 189.564 225.311 190.724 224.563 191.156L162.395 227.049C162.204 227.16 162.021 227.212 161.857 227.212Z" fill="#90B9E6"/>
<path d="M211.607 193.857L220.884 188.5C221.612 188.081 222.201 186.955 222.201 185.984C222.201 185.015 221.612 184.569 220.884 184.988L211.607 190.345C210.88 190.765 210.291 191.892 210.291 192.861C210.291 193.831 210.88 194.277 211.607 193.857Z" fill="#D9EFFB"/>
<path d="M202.005 197.865C202.005 199.697 203.292 200.44 204.877 199.525C206.464 198.608 207.751 196.381 207.751 194.549C207.751 192.717 206.464 191.975 204.877 192.891C203.292 193.807 202.005 196.033 202.005 197.865Z" fill="white"/>
<path d="M190.895 204.367C190.895 205.337 191.576 205.731 192.416 205.247C193.253 204.76 193.935 203.583 193.935 202.612C193.935 201.641 193.253 201.249 192.416 201.735C191.576 202.219 190.895 203.399 190.895 204.367Z" fill="#263C7A"/>
<path d="M185.529 207.465C185.529 208.435 186.211 208.828 187.051 208.343C187.891 207.859 188.571 206.679 188.571 205.708C188.571 204.74 187.891 204.347 187.051 204.831C186.211 205.316 185.529 206.495 185.529 207.465Z" fill="#D9EFFB"/>
<path d="M180.165 210.563C180.165 211.531 180.847 211.924 181.687 211.44C182.527 210.955 183.207 209.776 183.207 208.805C183.207 207.836 182.527 207.444 181.687 207.928C180.847 208.413 180.165 209.592 180.165 210.563Z" fill="#263C7A"/>
<path d="M165.009 221.784L168.135 219.979C168.601 219.711 168.979 218.987 168.979 218.364V215.059C168.979 214.436 168.601 214.149 168.135 214.419L165.009 216.224C164.543 216.493 164.164 217.216 164.164 217.839V221.144C164.164 221.767 164.543 222.053 165.009 221.784Z" fill="#D9EFFB"/>
<path d="M428.527 265.941L298.972 191.107L445.015 197.987L454.085 206.664L456.057 219.68L454.611 228.524L450.272 239.268L445.933 247.683L441.071 253.993L428.527 265.941" fill="#263C7A"/>
<path d="M319.636 122.877C319.415 122.743 319.191 122.612 318.961 122.489L318.92 122.465H318.917C313.741 119.695 306.711 120.199 298.972 124.668L122.005 226.839C122.759 227.404 123.423 228.084 124.041 228.819L130.749 224.947L166.56 302.768L185.097 328.077L197.193 332.284L209.32 327.544L268.187 294.091L384.865 227.373L427.66 201.668L438.835 198.119L448.887 197.521L319.636 122.877Z" fill="#D9EFFB"/>
<path d="M179.785 313.049C179.785 294.732 192.692 272.379 208.555 263.221V266.376C194.197 274.665 182.519 294.895 182.519 311.472C182.519 328.049 194.197 334.792 208.555 326.504L428.527 199.503C436.455 194.924 443.644 194.497 448.853 197.5L319.636 122.877C319.415 122.743 319.191 122.612 318.961 122.489L318.92 122.465H318.917C313.741 119.695 306.711 120.199 298.972 124.668L122.005 226.839C122.759 227.404 123.423 228.084 124.041 228.819L130.749 224.945L166.56 302.768L181.371 322.989C180.349 320.176 179.785 316.851 179.785 313.049" fill="#D9EFFB"/>
<path d="M448.885 197.521H448.887L448.864 197.508L448.885 197.521Z" fill="#D9EFFB"/>
<path d="M179.785 311.3C179.785 311.62 179.812 311.917 179.82 312.231C180.008 303.088 183.332 293.021 188.576 284.123C188.331 283.968 188.085 283.811 187.843 283.651C182.864 292.5 179.785 302.375 179.785 311.3" fill="white"/>
<path d="M428.527 197.753L208.555 324.753C194.536 332.847 183.077 326.603 182.544 310.872C182.54 311.072 182.519 311.275 182.519 311.472C182.519 328.049 194.197 334.792 208.555 326.504L428.527 199.503C436.455 194.924 443.644 194.497 448.853 197.5L442.601 193.891C438.436 193.584 433.637 194.803 428.527 197.753" fill="white"/>
<path d="M166.56 301.019L130.749 223.195L124.041 227.069C123.772 226.748 123.489 226.444 123.199 226.149L122.005 226.839C122.759 227.404 123.423 228.084 124.041 228.819L130.749 224.945L166.56 302.768L181.371 322.989C181.045 322.092 180.785 321.125 180.556 320.125L166.56 301.019Z" fill="white"/>
<path d="M448.885 195.771H448.887L448.864 195.757L448.885 195.771Z" fill="#D9EFFB"/>
<path d="M79.0013 188.385H79C63.1373 197.544 50.232 219.897 50.232 238.213C50.232 247.057 53.2467 253.36 58.144 256.489L58.1493 256.499L58.228 256.544C58.5187 256.727 58.816 256.899 59.12 257.059L188.201 331.645L180.3 317.361L181.219 303.097L183.717 295.079L187.529 286.532C187.529 286.532 190.685 280.683 190.883 280.549C191.08 280.417 195.549 274.635 195.549 274.635L199.896 270.097L204.621 267.075L208.555 263.221L79.0013 188.385" fill="#5F92D3"/>
<path d="M428.527 265.941V262.787C442.881 254.497 454.563 234.268 454.563 217.691C454.563 201.113 442.881 194.369 428.527 202.659L208.555 329.659C192.692 338.817 179.785 331.367 179.785 313.049C179.785 294.732 192.692 272.38 208.555 263.221V266.376C194.197 274.665 182.519 294.895 182.519 311.472C182.519 328.049 194.197 334.792 208.555 326.504L428.527 199.504C444.389 190.344 457.295 197.796 457.295 216.112C457.295 234.429 444.389 256.783 428.527 265.941" fill="#263C7A"/>
<path d="M325.507 221.256L263.903 186.479C261.443 185.093 257.176 185.315 254.371 186.973L219.171 207.792C216.365 209.451 216.085 211.917 218.544 213.304L280.148 248.08C282.607 249.465 286.873 249.244 289.679 247.584L324.879 226.768C327.684 225.109 327.965 222.641 325.507 221.256" fill="#5F92D3"/>
<path d="M278.62 240.539L215.291 204.853C214.037 204.147 213.441 203.192 213.411 202.185L213.377 202.209L213.305 195.157C213.305 195.157 215.529 196.983 216.84 198.053L256.3 174.716C259.511 172.817 264.395 172.564 267.208 174.149L327.74 208.259L332.369 205.521L332.452 212.639L332.424 212.616C332.408 213.836 331.548 215.123 329.82 216.144L289.528 239.972C286.319 241.871 281.435 242.124 278.62 240.539" fill="#7040CE"/>
<path d="M330.459 202.659L267.128 166.972C264.313 165.388 259.429 165.64 256.22 167.539L215.928 191.367C212.717 193.265 212.397 196.089 215.211 197.676L278.54 233.361C281.355 234.948 286.239 234.695 289.449 232.796L329.74 208.968C332.951 207.069 333.272 204.245 330.459 202.659Z" fill="#7D4CDB"/>
<path d="M278.54 233.361L215.211 197.676C213.611 196.775 213.059 195.472 213.44 194.168C213.737 194.779 214.256 195.345 215.068 195.803L278.399 231.487C281.212 233.073 286.096 232.819 289.305 230.92L329.597 207.093C330.981 206.273 331.796 205.283 332.084 204.293C332.816 205.801 332.025 207.616 329.74 208.968L289.449 232.795C286.239 234.695 281.355 234.948 278.54 233.361" fill="white"/>
<path d="M264.02 193.407C266.352 192.028 266.328 189.832 263.969 188.503C261.608 187.172 257.805 187.212 255.473 188.591C253.141 189.971 253.165 192.165 255.527 193.495C257.885 194.825 261.689 194.785 264.02 193.407Z" fill="white"/>
<path d="M276.965 200.7C279.297 199.321 279.273 197.127 276.913 195.797C274.553 194.467 270.751 194.507 268.419 195.885C266.087 197.264 266.111 199.46 268.471 200.789C270.831 202.12 274.633 202.08 276.965 200.7Z" fill="white"/>
<path d="M289.909 207.995C292.241 206.616 292.217 204.42 289.859 203.089C287.499 201.76 283.695 201.801 281.363 203.18C279.031 204.559 279.055 206.753 281.416 208.084C283.775 209.413 287.579 209.373 289.909 207.995Z" fill="white"/>
<path d="M242.264 265.527L190.639 235.421L187.399 237.273L239.025 267.377L242.264 265.527" fill="#5F92D3"/>
<path d="M240.825 248.349L204.788 227.335L201.548 229.185L237.585 250.199L240.825 248.349" fill="#5F92D3"/>
<path d="M228.889 249.559L197.712 231.379L194.473 233.229L225.651 251.409L228.889 249.559Z" fill="#5F92D3"/>
<path d="M249.339 261.481L233.751 252.392L230.512 254.244L246.1 263.333L249.339 261.481Z" fill="#5F92D3"/>
<path d="M362.764 194.623L311.139 164.519L307.9 166.369L359.527 196.473L362.764 194.623" fill="#5F92D3"/>
<path d="M361.325 177.444L325.288 156.429L322.049 158.281L358.087 179.296L361.325 177.444" fill="#5F92D3"/>
<path d="M349.391 178.653L318.213 160.473L314.973 162.325L346.151 180.505L349.391 178.653" fill="#5F92D3"/>
<path d="M369.84 190.579L354.251 181.488L351.012 183.34L366.6 192.429L369.84 190.579Z" fill="#5F92D3"/>
<path d="M319.636 122.877C319.415 122.743 319.191 122.612 318.961 122.489L318.92 122.465H318.917C313.741 119.695 306.711 120.199 298.972 124.668L284.119 133.244L304.997 145.297C306.007 145.879 306.92 145.875 307.595 145.401L307.597 145.404L333.056 130.628L319.636 122.877" fill="#B2DCF5"/>
<path d="M351.976 100.517L345.276 96.648L369.983 82.384C371.149 81.7107 371.149 80.6147 369.983 79.94L344.743 65.368C343.576 64.6947 341.677 64.6947 340.511 65.368L315.804 79.6334L309.103 75.764L333.808 61.4987C338.671 58.6934 346.583 58.6934 351.444 61.5L376.684 76.072C381.545 78.8787 381.545 83.4467 376.684 86.252L351.976 100.517Z" fill="#7D4CDB"/>
<path d="M362.789 102.221C362.789 98.6386 360.612 94.476 357.924 92.9253L313.16 67.0813C311.957 66.3867 310.859 66.3373 310.009 66.8107L310.007 66.8093L256.559 97.868L308.245 136.815L360.901 106.253C361.064 106.18 361.221 106.093 361.365 105.983H361.367C362.247 105.317 362.789 104.011 362.789 102.221" fill="#D9EFFB"/>
<path d="M308.245 136.815L360.901 106.253C361.064 106.18 361.221 106.093 361.365 105.983H361.367C362.247 105.317 362.789 104.011 362.789 102.221C362.789 100.511 362.289 98.6707 361.479 97.044L301.455 131.699L308.245 136.815" fill="#263C7A"/>
<path d="M304.879 136.677L260.115 110.833C257.428 109.281 255.251 105.12 255.251 101.537C255.251 97.956 257.428 96.308 260.115 97.86L304.879 123.704C307.565 125.255 309.744 129.417 309.744 133C309.744 136.583 307.565 138.229 304.879 136.677Z" fill="#5F92D3"/>
<path d="M305.417 123.46L260.653 97.6147C259.417 96.9027 258.293 96.8707 257.436 97.388C258.204 97.1533 259.124 97.288 260.115 97.86L304.879 123.704C307.565 125.255 309.744 129.417 309.744 132.999V133C309.744 134.935 309.104 136.299 308.096 136.905C309.413 136.504 310.283 135.017 310.283 132.755V132.753C310.283 129.172 308.104 125.011 305.417 123.46Z" fill="white"/>
<path d="M298.173 127.961L292.792 124.857C292.256 124.548 291.823 123.717 291.823 123.004C291.823 122.291 292.256 121.963 292.792 122.271L298.173 125.375C298.709 125.685 299.143 126.515 299.143 127.228C299.143 127.943 298.709 128.271 298.173 127.961Z" fill="white"/>
<path d="M304.244 91.2147C305.867 90.2547 305.852 88.7267 304.208 87.8C302.565 86.8733 299.917 86.9027 298.293 87.8613C296.669 88.8213 296.687 90.3507 298.329 91.2774C299.972 92.2027 302.62 92.1747 304.244 91.2147Z" fill="#5F92D3"/>
<path d="M313.257 96.2947C314.881 95.3333 314.864 93.8053 313.221 92.8787C311.579 91.9533 308.929 91.98 307.307 92.9413C305.684 93.9013 305.699 95.4293 307.343 96.356C308.985 97.2813 311.635 97.2533 313.257 96.2947Z" fill="white"/>
<path d="M322.271 101.373C323.895 100.413 323.879 98.884 322.236 97.9587C320.592 97.032 317.944 97.06 316.32 98.02C314.696 98.98 314.713 100.509 316.357 101.435C318 102.361 320.647 102.333 322.271 101.373Z" fill="white"/>
<path d="M246.619 369.019L387.007 287.908C390.411 285.943 389.983 282.509 386.053 280.241C382.124 277.972 376.179 277.725 372.775 279.691L232.385 360.802C228.981 362.765 229.409 366.197 233.339 368.468C237.269 370.737 243.215 370.983 246.619 369.019Z" fill="#F2F2F2"/>
<path d="M398.479 260.18C398.361 259.977 398.131 259.872 397.901 259.919L390.427 261.464L393.315 266.489L398.413 260.808C398.568 260.636 398.595 260.381 398.479 260.18" fill="#D9EFFB"/>
<path d="M395.501 263.836C395.504 262.76 394.751 261.451 393.819 260.911C393.389 260.661 393 260.628 392.701 260.761C384.084 260.605 375.585 262.792 368.112 267.084L367.571 267.396L376.679 283.248L379.431 281.461C385.259 277.679 390.189 272.668 393.875 266.779L395.065 264.877C395.332 264.688 395.5 264.335 395.501 263.836" fill="#5F92D3"/>
<path d="M378.58 279.068C378.588 274.945 375.704 269.927 372.139 267.859C368.575 265.791 365.677 267.455 365.668 271.577C365.659 275.697 368.543 280.717 372.108 282.785C375.675 284.855 378.572 283.189 378.58 279.068Z" fill="#D9EFFB"/>
<path d="M321.359 316.957L376.679 283.248L367.571 267.396L310.596 298.227L321.359 316.957" fill="#D9EFFB"/>
<path d="M323.605 312.017C323.616 307.147 320.208 301.217 315.996 298.772C311.783 296.328 308.36 298.296 308.349 303.167C308.339 308.036 311.747 313.967 315.959 316.41C320.172 318.856 323.595 316.888 323.605 312.017Z" fill="#D9EFFB"/>
<path d="M320.451 313.829C320.461 308.96 317.055 303.029 312.841 300.585C308.628 298.14 305.204 300.108 305.195 304.979C305.184 309.849 308.591 315.779 312.805 318.222C317.017 320.668 320.441 318.7 320.451 313.829" fill="#D9EFFB"/>
<path d="M245.041 360.805L318.203 318.769L307.441 300.039L234.28 342.076L245.041 360.805" fill="#D9EFFB"/>
<path d="M247.289 355.865C247.3 350.996 243.893 345.065 239.68 342.621C235.467 340.177 232.043 342.144 232.032 347.015C232.023 351.885 235.429 357.815 239.643 360.259C243.856 362.703 247.28 360.737 247.289 355.865" fill="#D9EFFB"/>
<path d="M244.56 354.283C244.42 351.407 242.115 347.803 239.409 346.233C236.704 344.663 234.624 345.722 234.763 348.598C234.903 351.475 237.208 355.08 239.913 356.648C242.619 358.217 244.697 357.159 244.56 354.283" fill="#4067B1"/>
<path d="M324.161 311.697C324.172 306.827 320.764 300.897 316.552 298.453C314.855 297.469 313.292 297.211 312.023 297.56C313.412 296.136 315.669 295.988 318.223 297.469C322.435 299.915 325.843 305.844 325.832 310.713C325.825 313.623 324.597 315.484 322.715 316.002C323.619 315.076 324.157 313.617 324.161 311.697Z" fill="white"/>
<path d="M324.161 311.697C324.172 306.827 320.764 300.897 316.552 298.453C314.445 297.231 312.535 297.112 311.152 297.908L307.007 300.289L308.937 303.648C309.252 308.083 312.167 313.155 315.839 315.659L317.769 319.02L321.915 316.639C323.299 315.843 324.156 314.133 324.161 311.697" fill="#5F92D3"/>
<path d="M320.017 314.08C320.027 309.209 316.62 303.279 312.407 300.835C308.193 298.391 304.769 300.359 304.759 305.228C304.749 310.099 308.156 316.028 312.369 318.472C316.583 320.917 320.007 318.951 320.017 314.08Z" fill="#D9EFFB"/>
<path d="M241.115 356.41L236.471 348.328L220.964 357.239C218.732 358.521 217.963 361.369 219.245 363.6C220.528 365.832 223.375 366.601 225.607 365.32L241.115 356.41Z" fill="#6239B0"/>
<path d="M242.084 354.279C242.088 352.177 240.619 349.619 238.801 348.565C236.983 347.51 235.505 348.359 235.501 350.46C235.496 352.561 236.967 355.12 238.784 356.175C240.601 357.229 242.08 356.38 242.084 354.279Z" fill="#7D4CDB"/>
<path d="M259.5 326.086L257.201 324.752C255.88 323.986 254.123 324.157 252.251 325.233L244.283 329.81C242.777 330.676 241.551 332.791 241.547 334.525L241.539 338.491C241.537 339.156 241.203 339.917 240.721 340.475L241 342.315L239.036 341.164L239.04 341.161C238.756 341.014 238.579 340.68 238.58 340.192L238.587 336.225C238.595 332.608 241.152 328.198 244.289 326.397L252.257 321.819C254.92 320.29 257.42 320.047 259.3 321.136L261.597 322.471C262.917 323.236 264.676 323.065 266.549 321.989L298.671 303.533C299.084 303.296 299.459 303.279 299.727 303.441V303.439L301.687 304.587L299.992 305.22C299.751 305.927 299.249 306.611 298.663 306.948L266.541 325.404C263.879 326.933 261.377 327.176 259.5 326.086" fill="#5F92D3"/>
<path d="M259.192 325.917C257.869 325.152 256.112 325.322 254.241 326.398L246.272 330.976C244.767 331.841 243.54 333.955 243.536 335.691L243.528 339.656C243.528 340.598 242.861 341.744 242.045 342.214C241.228 342.683 240.567 342.3 240.569 341.357L240.577 337.391C240.584 333.773 243.141 329.364 246.279 327.563L254.248 322.984C256.911 321.455 259.411 321.212 261.289 322.302L263.587 323.636C264.908 324.402 266.667 324.231 268.539 323.155L300.66 304.699C301.476 304.229 302.139 304.613 302.137 305.556C302.135 306.499 301.471 307.643 300.652 308.113L268.531 326.569C265.868 328.098 263.367 328.341 261.489 327.251L259.192 325.917Z" fill="#5F92D3"/>
<path d="M243.431 336.344L243.423 340.308L243.411 340.389C243.485 340.141 243.528 339.892 243.528 339.656L243.536 335.691L243.567 335.344C243.487 335.683 243.432 336.021 243.431 336.344" fill="white"/>
<path d="M228.392 375.504L243.08 367.025C244.851 366.003 244.629 364.216 242.584 363.035C240.537 361.855 237.444 361.727 235.673 362.749L220.985 371.228C219.215 372.251 219.437 374.036 221.481 375.217C223.528 376.398 226.621 376.528 228.392 375.504" fill="#F2F2F2"/>
<path d="M72.9813 353.703L54.6306 343.108L72.98 332.515L91.332 343.108L72.9813 353.703" fill="#F2F2F2"/>
<path d="M91.332 331.089L72.9813 341.685V320.496L91.332 309.901V331.089Z" fill="#6239B0"/>
<path d="M72.9813 320.496L54.6306 309.901L72.98 299.305L91.332 309.901L72.9813 320.496" fill="#7D4CDB"/>
<path d="M72.9813 341.685L54.6306 331.089V309.901L72.9813 320.496V341.685Z" fill="#7040CE"/>
<path d="M21.4067 225.357L0.967987 213.556L21.4067 201.755L41.8467 213.556L21.4067 225.357Z" fill="#F2F2F2"/>
<path d="M41.8467 200.169L21.4067 211.971V188.368L41.8467 176.568V200.169Z" fill="#263C7A"/>
<path d="M21.4067 188.368L0.967987 176.568L21.4067 164.767L41.8467 176.568L21.4067 188.368Z" fill="#D9EFFB"/>
<path d="M21.4067 211.971L0.967987 200.169V176.568L21.4067 188.368V211.971Z" fill="#5F92D3"/>
<path d="M440.371 185.417L399.436 161.783C396.923 160.332 397.239 157.799 400.139 156.124L439.667 133.304C442.568 131.628 446.956 131.447 449.469 132.897L490.404 156.531C492.917 157.981 492.601 160.515 489.7 162.191L450.173 185.011C447.272 186.685 442.884 186.867 440.371 185.417" fill="#F2F2F2"/>
<path d="M492.087 145.104V130.979L460.416 130.963L449.469 124.641C446.956 123.192 442.568 123.372 439.667 125.048L429.453 130.945L397.752 130.927V145.453C397.681 146.435 398.229 147.383 399.436 148.08L440.371 171.713C442.884 173.164 447.272 172.981 450.173 171.307L489.7 148.487C491.373 147.521 492.181 146.269 492.087 145.104" fill="#4067B1"/>
<path d="M444.92 123.669C443.083 123.715 441.173 124.177 439.667 125.048L429.453 130.945L397.752 130.927V145.453C397.681 146.435 398.229 147.383 399.436 148.08L440.371 171.713C441.58 172.411 443.22 172.727 444.92 172.685V123.669Z" fill="#4067B1"/>
<path d="M401.341 130.928L397.752 130.927V145.453C397.681 146.435 398.229 147.383 399.436 148.08L401.341 149.179V130.928" fill="#5F92D3"/>
<path d="M441.003 172.023C443.169 172.951 446.304 172.899 448.837 171.932V155.439H441.003V172.023Z" fill="#5F92D3"/>
<path d="M440.371 157.24L399.436 133.605C396.923 132.155 397.239 129.621 400.139 127.947L439.667 105.127C442.568 103.451 446.956 103.269 449.469 104.72L490.404 128.355C492.917 129.805 492.601 132.339 489.7 134.013L450.173 156.833C447.272 158.508 442.884 158.691 440.371 157.24Z" fill="#D9EFFB"/>
<path d="M489.7 131.233L450.173 154.053C447.272 155.729 442.884 155.911 440.371 154.46L399.436 130.825C398.876 130.503 398.465 130.124 398.183 129.713C397.319 131.103 397.711 132.609 399.436 133.605L440.371 157.24C442.884 158.691 447.272 158.508 450.173 156.833L489.7 134.013C491.955 132.711 492.639 130.893 491.657 129.467C491.263 130.099 490.609 130.708 489.7 131.233Z" fill="white"/>
<path d="M477.029 148.832C477.029 149.885 476.291 151.168 475.376 151.695C474.464 152.223 473.724 151.796 473.724 150.741C473.724 149.687 474.464 148.404 475.376 147.876C476.291 147.351 477.029 147.777 477.029 148.832Z" fill="#D9EFFB"/>
<path d="M482.351 145.76C482.351 146.815 481.609 148.096 480.696 148.624C479.784 149.151 479.043 148.724 479.043 147.669C479.043 146.615 479.784 145.333 480.696 144.805C481.609 144.279 482.351 144.705 482.351 145.76Z" fill="#D9EFFB"/>
<path d="M487.669 142.689C487.669 143.744 486.929 145.027 486.016 145.552C485.103 146.08 484.363 145.652 484.363 144.597C484.363 143.544 485.103 142.261 486.016 141.735C486.929 141.207 487.669 141.635 487.669 142.689Z" fill="#D9EFFB"/>
<path d="M442.792 142.587L423.637 131.528C422.461 130.849 422.608 129.663 423.967 128.879L442.463 118.2C443.819 117.417 445.873 117.332 447.049 118.011L466.204 129.071C467.38 129.749 467.233 130.933 465.875 131.717L447.379 142.397C446.021 143.181 443.968 143.265 442.792 142.587" fill="#5F92D3"/>
<path d="M444.627 133.327L441.975 131.797C441.812 131.703 441.833 131.539 442.021 131.431L444.581 129.953C444.768 129.845 445.052 129.832 445.215 129.927L447.865 131.457C448.028 131.551 448.008 131.715 447.82 131.823L445.26 133.301C445.073 133.409 444.789 133.42 444.627 133.327" fill="#D9EFFB"/>
<path d="M423.637 131.528L423.691 131.559L423.967 131.369L442.463 120.691C443.819 119.907 445.873 119.821 447.049 120.5L466.151 131.528C467.235 130.752 467.291 129.696 466.204 129.071L447.049 118.011C445.873 117.332 443.819 117.417 442.463 118.2L423.967 128.879C422.608 129.663 422.461 130.849 423.637 131.528" fill="#4067B1"/>
</svg>
